Coordinates
version=1
nRows=20
nColumns=23
inDegrees=yes

Units are S.I. units (second, meters, Newtons, ...)
If the header above contains a line with 'inDegrees', this indicates whether rotational values are in degrees (yes) or radians (no).

endheader
time	pelvis_tilt	pelvis_list	pelvis_rotation	pelvis_tx	pelvis_ty	pelvis_tz	hip_flexion_r	hip_adduction_r	hip_rotation_r	knee_angle_r	knee_angle_r_beta	ankle_angle_r	subtalar_angle_r	mtp_angle_r	hip_flexion_l	hip_adduction_l	hip_rotation_l	knee_angle_l	knee_angle_l_beta	ankle_angle_l	subtalar_angle_l	mtp_angle_l
      0.00000000	     -0.79041383	      8.18440749	      7.09053336	      2.41291915	      0.89848407	      1.05647821	     15.31431810	    -12.18542550	     -1.59178512	     85.93783136	      1.49989811	      0.19312548	    -22.72512828	      0.00000000	     15.47339197	     10.58375505	     -4.85117342	     43.26116616	      0.75504979	     25.67717076	      1.40989899	      0.00000000
      0.00666667	     -0.61642400	      8.06439992	      6.26662073	      2.41327967	      0.90288059	      1.05743276	     16.63605027	    -11.92434465	     -0.62563239	     84.92636671	      1.48224472	      1.01108750	    -22.47515335	      0.00000000	     13.13996905	     10.08503828	     -5.57852402	     41.33742035	      0.72147409	     25.75328823	      2.11863518	      0.00000000
      0.01333333	     -0.14921977	      7.91548866	      5.58496168	      2.41376650	      0.90754386	      1.05814848	     17.44230498	    -11.70648733	     -0.01323510	     83.72180893	      1.46122122	      1.85597191	    -22.09016437	      0.00000000	     10.42482665	      9.61230215	     -6.20591042	     39.27177568	      0.68542179	     25.78881066	      3.21352656	      0.00000000
      0.02000000	      0.05308451	      7.58446154	      5.00618233	      2.41430107	      0.91179517	      1.05864150	     18.42931548	    -11.30452520	      0.44818916	     82.37441904	      1.43770483	      2.73514690	    -21.78467286	      0.00000000	      8.02646266	      9.08355561	     -6.66248968	     37.21516689	      0.64952719	     25.69529438	      4.07940093	      0.00000000
      0.02666667	      0.26562292	      7.15967751	      4.55856588	      2.41497410	      0.91610077	      1.05891441	     19.23678552	    -10.86165835	      0.63062664	     80.79886289	      1.41020619	      3.58402891	    -21.45574796	      0.00000000	      5.60722707	      8.52470438	     -6.99257769	     35.10818754	      0.61275347	     25.46566828	      5.04164614	      0.00000000
      0.03333333	      0.27983747	      6.63364268	      4.23104453	      2.41578631	      0.92017935	      1.05895647	     20.11538883	    -10.37964145	      0.57303696	     79.03230449	      1.37937393	      4.44663915	    -21.20017383	      0.00000000	      3.42485277	      7.92842358	     -7.22818318	     33.00807456	      0.57609958	     24.99857140	      5.84387368	      0.00000000
      0.04000000	      0.13183320	      6.03751423	      3.99487295	      2.41667779	      0.92414412	      1.05879371	     21.04813602	     -9.86454199	      0.32634548	     77.05643310	      1.34488847	      5.29371360	    -21.00185138	      0.00000000	      1.44766949	      7.30728341	     -7.39808239	     30.91775154	      0.53961656	     24.22491780	      6.50164664	      0.00000000
      0.04666667	     -0.10242886	      5.38829444	      3.84251471	      2.41771688	      0.92806652	      1.05858172	     21.92642836	     -9.36235921	     -0.17505260	     74.85265209	      1.30642523	      6.09971296	    -20.81250667	      0.00000000	     -0.39410830	      6.66217890	     -7.45881784	     28.86001092	      0.50370221	     23.17535474	      7.00978455	      0.00000000
      0.05333333	     -0.60343893	      4.66233982	      3.74566826	      2.41875299	      0.93168408	      1.05830093	     22.99925731	     -8.82027774	     -0.83873802	     72.47000257	      1.26484015	      6.90186817	    -20.64149095	      0.00000000	     -1.82844443	      5.91082767	     -7.66171108	     26.97504666	      0.47080338	     21.68566497	      7.51278454	      0.00000000
      0.06000000	     -0.76365591	      3.96575768	      3.64883495	      2.42004947	      0.93585950	      1.05798512	     23.51970335	     -8.30330070	     -1.65589296	     69.78093295	      1.21790704	      7.59559605	    -20.40623367	      0.00000000	     -3.68114955	      5.23698193	     -7.65279248	     24.93789412	      0.43524836	     20.07312962	      7.78233179	      0.00000000
      0.06666667	     -1.16231475	      3.24665449	      3.60818385	      2.42131436	      0.93972355	      1.05768741	     24.19342707	     -7.78979701	     -2.61968311	     66.91624784	      1.16790885	      8.27829985	    -20.07350726	      0.00000000	     -5.14480840	      4.54355646	     -7.58848716	     23.08236801	      0.40286332	     18.03495276	      7.79042106	      0.00000000
      0.07333333	     -1.93581951	      2.47515982	      3.54307065	      2.42242987	      0.94300437	      1.05760437	     25.22824321	     -7.18293889	     -3.61094096	     63.92639142	      1.11572601	      8.90728382	    -19.64832114	      0.00000000	     -5.96073021	      3.71537614	     -7.88882283	     21.65978641	      0.37803459	     15.90412971	      8.13788655	      0.00000000
      0.08000000	     -2.02318211	      1.80082985	      3.45531593	      2.42388163	      0.94724473	      1.05753115	     25.30409284	     -6.66730324	     -4.77969686	     60.63013730	      1.05819552	      9.53756506	    -18.88646409	      0.00000000	     -7.70540723	      3.10452731	     -7.54062205	     19.76180985	      0.34490865	     13.30668650	      7.43823055	      0.00000000
      0.08666667	     -2.47621290	      1.06720302	      3.34851336	      2.42513893	      0.95080403	      1.05768422	     25.73198355	     -6.04262526	     -5.97730940	     57.22833251	      0.99882283	     10.13133415	    -17.98969375	      0.00000000	     -8.75172614	      2.30727795	     -7.71790269	     18.43805513	      0.32180477	     10.74590435	      7.37745882	      0.00000000
      0.09333333	     -3.08830629	      0.36632375	      3.19921844	      2.42622673	      0.95397766	      1.05809225	     26.26991705	     -5.33909252	     -7.09156971	     53.70671856	      0.93735907	     10.68449094	    -16.87153995	      0.00000000	     -9.40982053	      1.49298192	     -8.08027938	     17.50719420	      0.30555818	      8.29844567	      7.39597769	      0.00000000
      0.10000000	     -3.49501932	     -0.27466911	      3.07153742	      2.42746369	      0.95732284	      1.05854663	     26.44856586	     -4.71630879	     -8.42439738	     50.03699401	      0.87331029	     11.34975683	    -15.22007079	      0.00000000	    -10.29012006	      0.77305878	     -8.14612278	     16.51709483	      0.28827769	      5.72630635	      7.13096484	      0.00000000
      0.10666667	     -4.03311899	     -0.90021890	      2.88882117	      2.42849966	      0.96024040	      1.05929778	     26.72691573	     -3.97957292	     -9.66231606	     46.28626999	      0.80784781	     11.95979668	    -13.33479264	      0.00000000	    -10.79410574	     -0.00286211	     -8.48018947	     15.97880102	      0.27888269	      3.29337467	      7.01640112	      0.00000000
      0.11333333	     -4.60049092	     -1.47755012	      2.69178185	      2.42938454	      0.96287826	      1.06023320	     26.97588644	     -3.18270259	    -10.83395122	     42.46733278	      0.74119478	     12.53790272	    -11.25875491	      0.00000000	    -11.06884749	     -0.78987723	     -8.96796178	     15.81218611	      0.27597471	      1.07488201	      7.07338632	      0.00000000
      0.12000000	     -5.16635278	     -1.98747206	      2.47132190	      2.43020052	      0.96522907	      1.06139835	     27.17553323	     -2.37014661	    -11.99330214	     38.64139479	      0.67441957	     13.12159121	     -8.91079231	      0.00000000	    -11.19080807	     -1.55896155	     -9.57549699	     15.94936436	      0.27836892	     -0.96155864	      7.22691141	      0.00000000
      0.12666667	     -5.75323988	     -2.44140156	      2.23103084	      2.43079583	      0.96724763	      1.06273822	     27.36015948	     -1.46558268	    -12.93665580	     34.79936728	      0.60736354	     13.60657320	     -6.62450459	      0.00000000	    -11.09018791	     -2.32891096	    -10.26992095	     16.47360345	      0.28751862	     -2.75282108	      7.40538579	      0.00000000
